<?xml version="1.0" encoding="UTF-8"?>
<!-- Generator: Adobe Illustrator 13.0.2, SVG Export Plug-In . SVG Version: 6.00 Build 14948)  -->
<!DOCTYPE svg PUBLIC "-//W3C//DTD SVG 1.1 Tiny//EN" "http://www.w3.org/Graphics/SVG/1.1/DTD/svg11-tiny.dtd">
<svg version="1.1" baseProfile="tiny" id="Layer_1" xmlns="http://www.w3.org/2000/svg" xmlns:xlink="http://www.w3.org/1999/xlink" x="0px" y="0px" width="529.249px" height="138.405px" viewBox="0 0 529.249 138.405" xml:space="preserve">
<g>
	<path d="M96.487,65.165c-2.229,5.392-5.798,10.088-10.294,13.672c2.589,1.465,4.339,4.242,4.339,7.43   c0,4.712-3.82,8.531-8.532,8.531H64.937H47.873V77.734h17.063c14.136,0,25.596-11.459,25.596-25.595   c0-14.136-11.459-25.596-25.596-25.596H47.873H30.809v17.064h17.064h17.063c4.712,0,8.532,3.82,8.532,8.532   s-3.82,8.532-8.532,8.532H47.873H30.809v17.063v17.063v17.064h17.064h17.063H82c14.136,0,25.595-11.46,25.595-25.596   C107.596,77.509,103.196,69.779,96.487,65.165z"/>
	<path d="M124.186,0H14.219C6.378,0,0,6.379,0,14.22v109.966c0,7.841,6.378,14.22,14.219,14.22H98.59   c5.104,0,11.188-2.52,14.795-6.128l18.892-18.892c3.608-3.609,6.128-9.693,6.128-14.795V14.22C138.405,6.379,132.026,0,124.186,0z    M128.925,98.591c0,2.606-1.508,6.248-3.352,8.091l-18.892,18.892c-1.843,1.844-5.485,3.353-8.092,3.353H14.22   c-2.607,0-4.74-2.133-4.74-4.74V14.22c0-2.607,2.133-4.74,4.74-4.74h109.966c2.607,0,4.74,2.133,4.74,4.74V98.591z"/>
	<g>
		<path d="M208.172,107.869h-19.148v-77.93h19.148c17.924,0,29.836,2.783,29.836,19.928c0,12.58-7.793,15.92-14.473,17.479    c7.125,1.447,16.699,3.896,16.699,18.258C240.234,105.42,227.877,107.869,208.172,107.869z M208.729,41.406h-4.119v20.818h4.676    c8.461,0,13.137-1.336,13.137-11.467C222.422,42.186,217.412,41.406,208.729,41.406z M209.285,73.357h-4.676v23.045h4.342    c9.463,0,15.697-0.668,15.697-11.355C224.648,75.027,219.305,73.357,209.285,73.357z"/>
		<path d="M271.63,108.982c-11.912,0-26.941-4.23-26.941-30.615c0-25.717,14.584-30.615,26.941-30.615    c12.246,0,26.941,4.119,26.941,30.615C298.571,105.086,283.431,108.982,271.63,108.982z M271.63,58.773    c-6.123,0-11.355,2.004-11.355,19.594c0,17.367,6.345,19.482,11.355,19.482s11.355-2.004,11.355-19.482    C282.985,60.109,277.753,58.773,271.63,58.773z"/>
		<path d="M329.41,108.982c-11.912,0-26.941-4.23-26.941-30.615c0-25.717,14.584-30.615,26.941-30.615    c12.246,0,26.941,4.119,26.941,30.615C356.352,105.086,341.211,108.982,329.41,108.982z M329.41,58.773    c-6.123,0-11.355,2.004-11.355,19.594c0,17.367,6.346,19.482,11.355,19.482s11.355-2.004,11.355-19.482    C340.766,60.109,335.533,58.773,329.41,58.773z"/>
		<path d="M383.628,108.982c-8.016,0-16.143-2.004-16.143-15.92V59.33h-10.02V48.865h10.02l1.113-13.025l14.473-4.787v17.813h13.359    l-1.559,10.465h-11.801v33.51c0,3.34,1.781,3.785,3.785,3.785c2.561,0,10.688-2.004,10.688-2.004v11.801    C397.544,106.422,390.864,108.982,383.628,108.982z"/>
		<path d="M460.557,107.869l-0.445-29.613c-0.111-10.799,1.113-23.49,1.113-23.49s-4.23,10.02-9.129,18.703l-11.133,19.705    l-11.244-19.705c-5.121-9.018-9.018-18.592-9.018-18.592s1.336,11.467,1.113,23.379l-0.445,29.613h-15.475l2.672-77.93h12.246    l20.15,39.299l20.484-39.299h11.912l2.672,77.93H460.557z"/>
		<path d="M492.732,41.072c-5.232,0-9.24-4.342-9.24-9.463s4.008-9.463,9.24-9.463s9.24,4.342,9.24,9.463    S497.965,41.072,492.732,41.072z M484.939,107.869V48.865h15.586v59.004H484.939z"/>
		<path d="M520.009,41.072c-5.232,0-9.24-4.342-9.24-9.463s4.008-9.463,9.24-9.463s9.24,4.342,9.24,9.463    S525.241,41.072,520.009,41.072z M512.216,107.869V48.865h15.586v59.004H512.216z"/>
	</g>
</g>
</svg>